<svg xmlns="http://www.w3.org/2000/svg" width="44" height="44" viewBox="0 0 44 44" fill="none">
  <defs>
    <linearGradient id="g9" x1="31.4796" y1="4.302" x2="3.76172" y2="25.582" gradientUnits="userSpaceOnUse">
      <stop stop-color="#AE92FF"/>
      <stop offset="1" stop-color="#7694FF"/>
    </linearGradient>
  </defs>
  <path fill-rule="evenodd" clip-rule="evenodd" d="M22.8715 0.031C23.8213 0.269 24.3989 1.231 24.1613 2.181L17.9568 26.999C17.7194 27.949 16.757 28.527 15.8071 28.289C14.8572 28.052 14.2798 27.089 14.5172 26.139L20.7219 1.321C20.9592 0.371 21.9216 -0.206 22.8715 0.031ZM14.0758 5.962C14.6875 6.726 14.5635 7.842 13.799 8.454L6.66566 14.16L13.799 19.867C14.5635 20.478 14.6875 21.594 14.0758 22.359C13.4642 23.123 12.3487 23.247 11.5842 22.635L2.72049 15.545C2.29998 15.208 2.05518 14.699 2.05518 14.16C2.05518 13.622 2.29998 13.112 2.72049 12.776L11.5842 5.685C12.3487 5.073 13.4642 5.197 14.0758 5.962ZM25.4891 5.962C26.1007 5.197 27.2163 5.073 27.9808 5.685L36.8445 12.776C37.6091 13.388 37.733 14.503 37.1214 15.268C36.5098 16.032 35.3942 16.156 34.6296 15.545L25.766 8.454C25.0014 7.842 24.8775 6.726 25.4891 5.962ZM39.0258 26.569C39.0258 26.874 39.0069 27.16 38.9689 27.437L40.8767 28.896C41.0572 29.025 41.1045 29.256 40.9907 29.459L39.1682 32.525C39.0544 32.728 38.817 32.802 38.6082 32.728L36.3396 31.841C35.8744 32.192 35.3619 32.488 34.8019 32.709L34.4602 35.055C34.4318 35.276 34.2419 35.433 34.0141 35.433H30.3691C30.1413 35.433 29.961 35.276 29.9135 35.055L29.5719 32.709C29.0119 32.488 28.5088 32.192 28.034 31.841L25.7655 32.728C25.5566 32.792 25.3194 32.728 25.2054 32.525L23.3831 29.459C23.2787 29.275 23.326 29.025 23.4969 28.896L25.4238 27.437C25.3763 27.16 25.3574 26.856 25.3574 26.569C25.3574 26.283 25.3953 25.979 25.4428 25.701L23.5159 24.243C23.326 24.113 23.2881 23.873 23.402 23.679L25.215 20.614C25.3288 20.411 25.5662 20.337 25.775 20.411L28.0436 21.297C28.5088 20.956 29.0212 20.651 29.5813 20.43L29.923 18.084C29.961 17.863 30.1413 17.706 30.3691 17.706H34.0141C34.2419 17.706 34.4318 17.863 34.4697 18.084L34.8113 20.43C35.3713 20.651 35.8744 20.946 36.3492 21.297L38.6177 20.411C38.8266 20.346 39.0638 20.411 39.1777 20.614L41.0001 23.679C41.1045 23.864 41.0572 24.113 40.8863 24.243L38.9593 25.701C39.0069 25.979 39.0258 26.274 39.0258 26.569ZM28.7745 26.569C28.7745 28.397 30.3122 29.893 32.1916 29.893C34.071 29.893 35.6087 28.397 35.6087 26.569C35.6087 24.741 34.071 23.245 32.1916 23.245C30.3122 23.245 28.7745 24.741 28.7745 26.569Z" fill="url(#g9)"/>
</svg>
